<svg version="1.1" baseProfile="full" width="330" height="330" xmlns="http://www.w3.org/2000/svg">
<rect x="120" y="40" width="10" height="10" fill="black"/>
<rect x="130" y="40" width="10" height="10" fill="black"/>
<rect x="150" y="40" width="10" height="10" fill="black"/>
<rect x="160" y="40" width="10" height="10" fill="black"/>
<rect x="170" y="40" width="10" height="10" fill="black"/>
<rect x="180" y="40" width="10" height="10" fill="black"/>
<rect x="200" y="40" width="10" height="10" fill="black"/>
<rect x="120" y="50" width="10" height="10" fill="black"/>
<rect x="150" y="50" width="10" height="10" fill="black"/>
<rect x="180" y="50" width="10" height="10" fill="black"/>
<rect x="190" y="50" width="10" height="10" fill="black"/>
<rect x="200" y="50" width="10" height="10" fill="black"/>
<rect x="120" y="60" width="10" height="10" fill="black"/>
<rect x="140" y="60" width="10" height="10" fill="black"/>
<rect x="170" y="60" width="10" height="10" fill="black"/>
<rect x="180" y="60" width="10" height="10" fill="black"/>
<rect x="120" y="70" width="10" height="10" fill="black"/>
<rect x="150" y="70" width="10" height="10" fill="black"/>
<rect x="160" y="70" width="10" height="10" fill="black"/>
<rect x="170" y="70" width="10" height="10" fill="black"/>
<rect x="180" y="70" width="10" height="10" fill="black"/>
<rect x="120" y="80" width="10" height="10" fill="black"/>
<rect x="160" y="80" width="10" height="10" fill="black"/>
<rect x="180" y="80" width="10" height="10" fill="black"/>
<rect x="190" y="80" width="10" height="10" fill="black"/>
<rect x="160" y="90" width="10" height="10" fill="black"/>
<rect x="170" y="90" width="10" height="10" fill="black"/>
<rect x="190" y="90" width="10" height="10" fill="black"/>
<rect x="200" y="90" width="10" height="10" fill="black"/>
<rect x="120" y="100" width="10" height="10" fill="black"/>
<rect x="140" y="100" width="10" height="10" fill="black"/>
<rect x="160" y="100" width="10" height="10" fill="black"/>
<rect x="180" y="100" width="10" height="10" fill="black"/>
<rect x="200" y="100" width="10" height="10" fill="black"/>
<rect x="120" y="110" width="10" height="10" fill="black"/>
<rect x="140" y="110" width="10" height="10" fill="black"/>
<rect x="150" y="110" width="10" height="10" fill="black"/>
<rect x="170" y="110" width="10" height="10" fill="black"/>
<rect x="180" y="110" width="10" height="10" fill="black"/>
<rect x="200" y="110" width="10" height="10" fill="black"/>
<rect x="50" y="120" width="10" height="10" fill="black"/>
<rect x="60" y="120" width="10" height="10" fill="black"/>
<rect x="80" y="120" width="10" height="10" fill="black"/>
<rect x="100" y="120" width="10" height="10" fill="black"/>
<rect x="110" y="120" width="10" height="10" fill="black"/>
<rect x="130" y="120" width="10" height="10" fill="black"/>
<rect x="150" y="120" width="10" height="10" fill="black"/>
<rect x="160" y="120" width="10" height="10" fill="black"/>
<rect x="180" y="120" width="10" height="10" fill="black"/>
<rect x="190" y="120" width="10" height="10" fill="black"/>
<rect x="200" y="120" width="10" height="10" fill="black"/>
<rect x="220" y="120" width="10" height="10" fill="black"/>
<rect x="240" y="120" width="10" height="10" fill="black"/>
<rect x="250" y="120" width="10" height="10" fill="black"/>
<rect x="260" y="120" width="10" height="10" fill="black"/>
<rect x="270" y="120" width="10" height="10" fill="black"/>
<rect x="280" y="120" width="10" height="10" fill="black"/>
<rect x="90" y="130" width="10" height="10" fill="black"/>
<rect x="110" y="130" width="10" height="10" fill="black"/>
<rect x="120" y="130" width="10" height="10" fill="black"/>
<rect x="180" y="130" width="10" height="10" fill="black"/>
<rect x="200" y="130" width="10" height="10" fill="black"/>
<rect x="220" y="130" width="10" height="10" fill="black"/>
<rect x="280" y="130" width="10" height="10" fill="black"/>
<rect x="100" y="140" width="10" height="10" fill="black"/>
<rect x="130" y="140" width="10" height="10" fill="black"/>
<rect x="140" y="140" width="10" height="10" fill="black"/>
<rect x="150" y="140" width="10" height="10" fill="black"/>
<rect x="160" y="140" width="10" height="10" fill="black"/>
<rect x="170" y="140" width="10" height="10" fill="black"/>
<rect x="210" y="140" width="10" height="10" fill="black"/>
<rect x="220" y="140" width="10" height="10" fill="black"/>
<rect x="230" y="140" width="10" height="10" fill="black"/>
<rect x="240" y="140" width="10" height="10" fill="black"/>
<rect x="260" y="140" width="10" height="10" fill="black"/>
<rect x="270" y="140" width="10" height="10" fill="black"/>
<rect x="280" y="140" width="10" height="10" fill="black"/>
<rect x="40" y="150" width="10" height="10" fill="black"/>
<rect x="70" y="150" width="10" height="10" fill="black"/>
<rect x="80" y="150" width="10" height="10" fill="black"/>
<rect x="110" y="150" width="10" height="10" fill="black"/>
<rect x="120" y="150" width="10" height="10" fill="black"/>
<rect x="130" y="150" width="10" height="10" fill="black"/>
<rect x="140" y="150" width="10" height="10" fill="black"/>
<rect x="210" y="150" width="10" height="10" fill="black"/>
<rect x="230" y="150" width="10" height="10" fill="black"/>
<rect x="240" y="150" width="10" height="10" fill="black"/>
<rect x="270" y="150" width="10" height="10" fill="black"/>
<rect x="40" y="160" width="10" height="10" fill="black"/>
<rect x="70" y="160" width="10" height="10" fill="black"/>
<rect x="80" y="160" width="10" height="10" fill="black"/>
<rect x="100" y="160" width="10" height="10" fill="black"/>
<rect x="130" y="160" width="10" height="10" fill="black"/>
<rect x="140" y="160" width="10" height="10" fill="black"/>
<rect x="200" y="160" width="10" height="10" fill="black"/>
<rect x="210" y="160" width="10" height="10" fill="black"/>
<rect x="220" y="160" width="10" height="10" fill="black"/>
<rect x="250" y="160" width="10" height="10" fill="black"/>
<rect x="270" y="160" width="10" height="10" fill="black"/>
<rect x="280" y="160" width="10" height="10" fill="black"/>
<rect x="50" y="170" width="10" height="10" fill="black"/>
<rect x="60" y="170" width="10" height="10" fill="black"/>
<rect x="70" y="170" width="10" height="10" fill="black"/>
<rect x="80" y="170" width="10" height="10" fill="black"/>
<rect x="140" y="170" width="10" height="10" fill="black"/>
<rect x="150" y="170" width="10" height="10" fill="black"/>
<rect x="200" y="170" width="10" height="10" fill="black"/>
<rect x="210" y="170" width="10" height="10" fill="black"/>
<rect x="220" y="170" width="10" height="10" fill="black"/>
<rect x="250" y="170" width="10" height="10" fill="black"/>
<rect x="280" y="170" width="10" height="10" fill="black"/>
<rect x="40" y="180" width="10" height="10" fill="black"/>
<rect x="100" y="180" width="10" height="10" fill="black"/>
<rect x="130" y="180" width="10" height="10" fill="black"/>
<rect x="140" y="180" width="10" height="10" fill="black"/>
<rect x="150" y="180" width="10" height="10" fill="black"/>
<rect x="160" y="180" width="10" height="10" fill="black"/>
<rect x="170" y="180" width="10" height="10" fill="black"/>
<rect x="180" y="180" width="10" height="10" fill="black"/>
<rect x="200" y="180" width="10" height="10" fill="black"/>
<rect x="230" y="180" width="10" height="10" fill="black"/>
<rect x="260" y="180" width="10" height="10" fill="black"/>
<rect x="270" y="180" width="10" height="10" fill="black"/>
<rect x="280" y="180" width="10" height="10" fill="black"/>
<rect x="50" y="190" width="10" height="10" fill="black"/>
<rect x="60" y="190" width="10" height="10" fill="black"/>
<rect x="70" y="190" width="10" height="10" fill="black"/>
<rect x="80" y="190" width="10" height="10" fill="black"/>
<rect x="110" y="190" width="10" height="10" fill="black"/>
<rect x="140" y="190" width="10" height="10" fill="black"/>
<rect x="160" y="190" width="10" height="10" fill="black"/>
<rect x="200" y="190" width="10" height="10" fill="black"/>
<rect x="210" y="190" width="10" height="10" fill="black"/>
<rect x="250" y="190" width="10" height="10" fill="black"/>
<rect x="270" y="190" width="10" height="10" fill="black"/>
<rect x="40" y="200" width="10" height="10" fill="black"/>
<rect x="90" y="200" width="10" height="10" fill="black"/>
<rect x="100" y="200" width="10" height="10" fill="black"/>
<rect x="110" y="200" width="10" height="10" fill="black"/>
<rect x="130" y="200" width="10" height="10" fill="black"/>
<rect x="170" y="200" width="10" height="10" fill="black"/>
<rect x="180" y="200" width="10" height="10" fill="black"/>
<rect x="190" y="200" width="10" height="10" fill="black"/>
<rect x="200" y="200" width="10" height="10" fill="black"/>
<rect x="210" y="200" width="10" height="10" fill="black"/>
<rect x="220" y="200" width="10" height="10" fill="black"/>
<rect x="230" y="200" width="10" height="10" fill="black"/>
<rect x="240" y="200" width="10" height="10" fill="black"/>
<rect x="250" y="200" width="10" height="10" fill="black"/>
<rect x="120" y="210" width="10" height="10" fill="black"/>
<rect x="150" y="210" width="10" height="10" fill="black"/>
<rect x="160" y="210" width="10" height="10" fill="black"/>
<rect x="190" y="210" width="10" height="10" fill="black"/>
<rect x="200" y="210" width="10" height="10" fill="black"/>
<rect x="240" y="210" width="10" height="10" fill="black"/>
<rect x="250" y="210" width="10" height="10" fill="black"/>
<rect x="260" y="210" width="10" height="10" fill="black"/>
<rect x="270" y="210" width="10" height="10" fill="black"/>
<rect x="280" y="210" width="10" height="10" fill="black"/>
<rect x="120" y="220" width="10" height="10" fill="black"/>
<rect x="130" y="220" width="10" height="10" fill="black"/>
<rect x="170" y="220" width="10" height="10" fill="black"/>
<rect x="180" y="220" width="10" height="10" fill="black"/>
<rect x="190" y="220" width="10" height="10" fill="black"/>
<rect x="200" y="220" width="10" height="10" fill="black"/>
<rect x="220" y="220" width="10" height="10" fill="black"/>
<rect x="240" y="220" width="10" height="10" fill="black"/>
<rect x="270" y="220" width="10" height="10" fill="black"/>
<rect x="280" y="220" width="10" height="10" fill="black"/>
<rect x="140" y="230" width="10" height="10" fill="black"/>
<rect x="150" y="230" width="10" height="10" fill="black"/>
<rect x="160" y="230" width="10" height="10" fill="black"/>
<rect x="170" y="230" width="10" height="10" fill="black"/>
<rect x="180" y="230" width="10" height="10" fill="black"/>
<rect x="190" y="230" width="10" height="10" fill="black"/>
<rect x="200" y="230" width="10" height="10" fill="black"/>
<rect x="240" y="230" width="10" height="10" fill="black"/>
<rect x="250" y="230" width="10" height="10" fill="black"/>
<rect x="120" y="240" width="10" height="10" fill="black"/>
<rect x="130" y="240" width="10" height="10" fill="black"/>
<rect x="150" y="240" width="10" height="10" fill="black"/>
<rect x="170" y="240" width="10" height="10" fill="black"/>
<rect x="180" y="240" width="10" height="10" fill="black"/>
<rect x="200" y="240" width="10" height="10" fill="black"/>
<rect x="210" y="240" width="10" height="10" fill="black"/>
<rect x="220" y="240" width="10" height="10" fill="black"/>
<rect x="230" y="240" width="10" height="10" fill="black"/>
<rect x="240" y="240" width="10" height="10" fill="black"/>
<rect x="280" y="240" width="10" height="10" fill="black"/>
<rect x="130" y="250" width="10" height="10" fill="black"/>
<rect x="150" y="250" width="10" height="10" fill="black"/>
<rect x="180" y="250" width="10" height="10" fill="black"/>
<rect x="190" y="250" width="10" height="10" fill="black"/>
<rect x="200" y="250" width="10" height="10" fill="black"/>
<rect x="230" y="250" width="10" height="10" fill="black"/>
<rect x="240" y="250" width="10" height="10" fill="black"/>
<rect x="260" y="250" width="10" height="10" fill="black"/>
<rect x="120" y="260" width="10" height="10" fill="black"/>
<rect x="130" y="260" width="10" height="10" fill="black"/>
<rect x="140" y="260" width="10" height="10" fill="black"/>
<rect x="150" y="260" width="10" height="10" fill="black"/>
<rect x="160" y="260" width="10" height="10" fill="black"/>
<rect x="200" y="260" width="10" height="10" fill="black"/>
<rect x="210" y="260" width="10" height="10" fill="black"/>
<rect x="230" y="260" width="10" height="10" fill="black"/>
<rect x="240" y="260" width="10" height="10" fill="black"/>
<rect x="250" y="260" width="10" height="10" fill="black"/>
<rect x="280" y="260" width="10" height="10" fill="black"/>
<rect x="120" y="270" width="10" height="10" fill="black"/>
<rect x="140" y="270" width="10" height="10" fill="black"/>
<rect x="150" y="270" width="10" height="10" fill="black"/>
<rect x="160" y="270" width="10" height="10" fill="black"/>
<rect x="170" y="270" width="10" height="10" fill="black"/>
<rect x="180" y="270" width="10" height="10" fill="black"/>
<rect x="190" y="270" width="10" height="10" fill="black"/>
<rect x="200" y="270" width="10" height="10" fill="black"/>
<rect x="240" y="270" width="10" height="10" fill="black"/>
<rect x="250" y="270" width="10" height="10" fill="black"/>
<rect x="270" y="270" width="10" height="10" fill="black"/>
<rect x="140" y="280" width="10" height="10" fill="black"/>
<rect x="170" y="280" width="10" height="10" fill="black"/>
<rect x="180" y="280" width="10" height="10" fill="black"/>
<rect x="190" y="280" width="10" height="10" fill="black"/>
<rect x="200" y="280" width="10" height="10" fill="black"/>
<rect x="210" y="280" width="10" height="10" fill="black"/>
<rect x="220" y="280" width="10" height="10" fill="black"/>
<rect x="230" y="280" width="10" height="10" fill="black"/>
<rect x="270" y="280" width="10" height="10" fill="black"/>
<rect x="280" y="280" width="10" height="10" fill="black"/>
<rect x="40" y="40" width="70" height="70" fill="black"/>
<rect x="50" y="50" width="50" height="50" fill="white"/>
<rect x="60" y="60" width="30" height="30" fill="black"/>
<rect x="220" y="40" width="70" height="70" fill="black"/>
<rect x="230" y="50" width="50" height="50" fill="white"/>
<rect x="240" y="60" width="30" height="30" fill="black"/>
<rect x="40" y="220" width="70" height="70" fill="black"/>
<rect x="50" y="230" width="50" height="50" fill="white"/>
<rect x="60" y="240" width="30" height="30" fill="black"/>
</svg>